<svg xmlns="http://www.w3.org/2000/svg" xmlns:xlink="http://www.w3.org/1999/xlink" contentStyleType="text/css" data-diagram-type="MINDMAP" height="733px" preserveAspectRatio="none" style="width:1105px;height:733px;background:#FFFFFF;" version="1.1" viewBox="0 0 1105 733" width="1105px" zoomAndPan="magnify"><defs/><g><rect fill="#FFFFFF" height="36.2969" rx="12.5" ry="12.5" style="stroke:#181818;stroke-width:1.5;" width="278.6855" x="10" y="347.4141"/><text fill="#000000" font-family="sans-serif" font-size="14" lengthAdjust="spacing" textLength="258.6855" x="20" y="370.4092">The Evolution of Panel Data Methods</text><rect fill="#FFFFFF" height="36.2969" rx="12.5" ry="12.5" style="stroke:#181818;stroke-width:1.5;" width="173.5625" x="338.6855" y="80.7422"/><text fill="#000000" font-family="sans-serif" font-size="14" lengthAdjust="spacing" textLength="153.5625" x="348.6855" y="103.7373">2020s: ML Integration</text><rect fill="#FFFFFF" height="68.8906" rx="12.5" ry="12.5" style="stroke:#181818;stroke-width:1.5;" width="346.6963" x="562.248" y="20"/><text fill="#000000" font-family="sans-serif" font-size="14" lengthAdjust="spacing" textLength="238.3281" x="572.248" y="42.9951">Synthetic DiD / Matrix Completion</text><text fill="#000000" font-family="sans-serif" font-size="14" font-style="italic" lengthAdjust="spacing" textLength="326.6963" x="572.248" y="59.292">Arkhangelsky et al. (2021); Athey et al. (2021)</text><text fill="#000000" font-family="sans-serif" font-size="14" lengthAdjust="spacing" textLength="252.0684" x="572.248" y="75.5889">Apps: Platform entry, Sparse panels</text><path d="M512.248,98.8906 L522.248,98.8906 C537.248,98.8906 537.248,54.4453 552.248,54.4453 L562.248,54.4453" fill="none" style="stroke:#181818;stroke-width:1;"/><rect fill="#FFFFFF" height="68.8906" rx="12.5" ry="12.5" style="stroke:#181818;stroke-width:1.5;" width="358.8506" x="562.248" y="108.8906"/><text fill="#000000" font-family="sans-serif" font-size="14" lengthAdjust="spacing" textLength="215.749" x="572.248" y="131.8857">Double ML / High-Dim Controls</text><text fill="#000000" font-family="sans-serif" font-size="14" font-style="italic" lengthAdjust="spacing" textLength="338.8506" x="572.248" y="148.1826">Chernozhukov et al. (2018); Belloni et al. (2017)</text><text fill="#000000" font-family="sans-serif" font-size="14" lengthAdjust="spacing" textLength="319.3955" x="572.248" y="164.4795">Apps: Rich covariates, Heterogeneous effects</text><path d="M512.248,98.8906 L522.248,98.8906 C537.248,98.8906 537.248,143.3359 552.248,143.3359 L562.248,143.3359" fill="none" style="stroke:#181818;stroke-width:1;"/><path d="M288.6855,365.5625 L298.6855,365.5625 C313.6855,365.5625 313.6855,98.8906 328.6855,98.8906 L338.6855,98.8906" fill="none" style="stroke:#181818;stroke-width:1;"/><rect fill="#FFFFFF" height="36.2969" rx="12.5" ry="12.5" style="stroke:#181818;stroke-width:1.5;" width="309.1465" x="338.6855" y="258.5234"/><text fill="#000000" font-family="sans-serif" font-size="14" lengthAdjust="spacing" textLength="289.1465" x="348.6855" y="281.5186">2010s: Modern Methods &amp; Heterogeneity</text><rect fill="#FFFFFF" height="68.8906" rx="12.5" ry="12.5" style="stroke:#181818;stroke-width:1.5;" width="287.5244" x="697.832" y="197.7813"/><text fill="#000000" font-family="sans-serif" font-size="14" lengthAdjust="spacing" textLength="169.8389" x="707.832" y="220.7764">Interactive Fixed Effects</text><text fill="#000000" font-family="sans-serif" font-size="14" font-style="italic" lengthAdjust="spacing" textLength="189.3828" x="707.832" y="237.0732">Bai (2009); Pesaran (2006)</text><text fill="#000000" font-family="sans-serif" font-size="14" lengthAdjust="spacing" textLength="267.5244" x="707.832" y="253.3701">Apps: Common shocks, Factor models</text><path d="M647.832,276.6719 L657.832,276.6719 C672.832,276.6719 672.832,232.2266 687.832,232.2266 L697.832,232.2266" fill="none" style="stroke:#181818;stroke-width:1;"/><rect fill="#FFFFFF" height="68.8906" rx="12.5" ry="12.5" style="stroke:#181818;stroke-width:1.5;" width="395.9355" x="697.832" y="286.6719"/><text fill="#000000" font-family="sans-serif" font-size="14" lengthAdjust="spacing" textLength="271.9746" x="707.832" y="309.667">Staggered DiD (Heterogeneity-Robust)</text><text fill="#000000" font-family="sans-serif" font-size="14" font-style="italic" lengthAdjust="spacing" textLength="375.9355" x="707.832" y="325.9639">Callaway &amp; Sant'Anna (2021); Sun &amp; Abraham (2021)</text><text fill="#000000" font-family="sans-serif" font-size="14" lengthAdjust="spacing" textLength="304.7871" x="707.832" y="342.2607">Apps: Loyalty programs, Staggered rollouts</text><path d="M647.832,276.6719 L657.832,276.6719 C672.832,276.6719 672.832,321.1172 687.832,321.1172 L697.832,321.1172" fill="none" style="stroke:#181818;stroke-width:1;"/><path d="M288.6855,365.5625 L298.6855,365.5625 C313.6855,365.5625 313.6855,276.6719 328.6855,276.6719 L338.6855,276.6719" fill="none" style="stroke:#181818;stroke-width:1;"/><rect fill="#FFFFFF" height="36.2969" rx="12.5" ry="12.5" style="stroke:#181818;stroke-width:1.5;" width="247.6777" x="338.6855" y="436.3047"/><text fill="#000000" font-family="sans-serif" font-size="14" lengthAdjust="spacing" textLength="227.6777" x="348.6855" y="459.2998">2000s: Design-Based Revolution</text><rect fill="#FFFFFF" height="68.8906" rx="12.5" ry="12.5" style="stroke:#181818;stroke-width:1.5;" width="376.3232" x="636.3633" y="375.5625"/><text fill="#000000" font-family="sans-serif" font-size="14" lengthAdjust="spacing" textLength="121.4609" x="646.3633" y="398.5576">Synthetic Control</text><text fill="#000000" font-family="sans-serif" font-size="14" font-style="italic" lengthAdjust="spacing" textLength="356.3232" x="646.3633" y="414.8545">Abadie &amp; Gardeazabal (2003); Abadie et al. (2010)</text><text fill="#000000" font-family="sans-serif" font-size="14" lengthAdjust="spacing" textLength="261.6592" x="646.3633" y="431.1514">Apps: Market entry, Policy evaluation</text><path d="M586.3633,454.4531 L596.3633,454.4531 C611.3633,454.4531 611.3633,410.0078 626.3633,410.0078 L636.3633,410.0078" fill="none" style="stroke:#181818;stroke-width:1;"/><rect fill="#FFFFFF" height="68.8906" rx="12.5" ry="12.5" style="stroke:#181818;stroke-width:1.5;" width="341.1455" x="636.3633" y="464.4531"/><text fill="#000000" font-family="sans-serif" font-size="14" lengthAdjust="spacing" textLength="175.5469" x="646.3633" y="487.4482">Difference-in-Differences</text><text fill="#000000" font-family="sans-serif" font-size="14" font-style="italic" lengthAdjust="spacing" textLength="321.1455" x="646.3633" y="503.7451">Bertrand et al. (2004); Card &amp; Krueger (1994)</text><text fill="#000000" font-family="sans-serif" font-size="14" lengthAdjust="spacing" textLength="276.9307" x="646.3633" y="520.042">Apps: Geo experiments, Rollout studies</text><path d="M586.3633,454.4531 L596.3633,454.4531 C611.3633,454.4531 611.3633,498.8984 626.3633,498.8984 L636.3633,498.8984" fill="none" style="stroke:#181818;stroke-width:1;"/><path d="M288.6855,365.5625 L298.6855,365.5625 C313.6855,365.5625 313.6855,454.4531 328.6855,454.4531 L338.6855,454.4531" fill="none" style="stroke:#181818;stroke-width:1;"/><rect fill="#FFFFFF" height="36.2969" rx="12.5" ry="12.5" style="stroke:#181818;stroke-width:1.5;" width="288.0508" x="338.6855" y="614.0859"/><text fill="#000000" font-family="sans-serif" font-size="14" lengthAdjust="spacing" textLength="268.0508" x="348.6855" y="637.0811">1980s-1990s: Classical Panel Methods</text><rect fill="#FFFFFF" height="68.8906" rx="12.5" ry="12.5" style="stroke:#181818;stroke-width:1.5;" width="320.2686" x="676.7363" y="553.3438"/><text fill="#000000" font-family="sans-serif" font-size="14" lengthAdjust="spacing" textLength="158.751" x="686.7363" y="576.3389">Two-Way Fixed Effects</text><text fill="#000000" font-family="sans-serif" font-size="14" font-style="italic" lengthAdjust="spacing" textLength="300.2686" x="686.7363" y="592.6357">Mundlak (1978); Hausman &amp; Taylor (1981)</text><text fill="#000000" font-family="sans-serif" font-size="14" lengthAdjust="spacing" textLength="286.7471" x="686.7363" y="608.9326">Apps: Brand effects, Store heterogeneity</text><path d="M626.7363,632.2344 L636.7363,632.2344 C651.7363,632.2344 651.7363,587.7891 666.7363,587.7891 L676.7363,587.7891" fill="none" style="stroke:#181818;stroke-width:1;"/><rect fill="#FFFFFF" height="68.8906" rx="12.5" ry="12.5" style="stroke:#181818;stroke-width:1.5;" width="291.8379" x="676.7363" y="642.2344"/><text fill="#000000" font-family="sans-serif" font-size="14" lengthAdjust="spacing" textLength="168.9912" x="686.7363" y="665.2295">Random Effects / Within</text><text fill="#000000" font-family="sans-serif" font-size="14" font-style="italic" lengthAdjust="spacing" textLength="239.873" x="686.7363" y="681.5264">Baltagi (1995); Wooldridge (2002)</text><text fill="#000000" font-family="sans-serif" font-size="14" lengthAdjust="spacing" textLength="271.8379" x="686.7363" y="697.8232">Apps: Marketing mix, Customer panels</text><path d="M626.7363,632.2344 L636.7363,632.2344 C651.7363,632.2344 651.7363,676.6797 666.7363,676.6797 L676.7363,676.6797" fill="none" style="stroke:#181818;stroke-width:1;"/><path d="M288.6855,365.5625 L298.6855,365.5625 C313.6855,365.5625 313.6855,632.2344 328.6855,632.2344 L338.6855,632.2344" fill="none" style="stroke:#181818;stroke-width:1;"/><!--SRC=[dLJRRjiu47tNLmommAuJHF6bkJZPOb7RogLfZ3Nif7dforWQIuGfKY0f9yuY_xv3MQxLkEX3zQQPuPp3SsRuoJeqBXSgoR48FbgtblHFKFz70bE3EVmN07z3Z9UfqQLAHbfg0y-PS5HbZetMhgxwMUKV7whlU_vQA_U-npO-ymnWhcNoOrYy4dHFgjZR1dGXZFqbQdBME-_rVmUrHh0KQvNy0cA_qVw5tuAtu6Ex5lOG7ZA2gvMMfHDQWLx011L9YD0XZCbbEh71uI7qEhsElOJnFNnMZjW5Nyw9GvYjbSl8YHWY4K4RnkYCU86HpWj9lkgRQhS7PfcXIadQvHh80SfZQ77Fxi7VCE3ZxuBjzZSrA0e6d4Xq2sro8ENC-WXc1HfBK7YIjiAFT3bdhPXP6sv5ceMHo1cToxMq7dkKaL7wDIkNUjM0wVOPUqXIQYMQuVC6-bJ46SHwXKQW8ti4j-J8w9GKwT82BHOKkrgVRgMFJXXiAnpysJWWtBhYw_Kp63kn8hWMBvJ0rQQDvpf4uKbqBfZRX2mQLDN_MOCKAvkpLJRJyP8fNNCljZXdv5gHcSCq9SETlIEj7oY4KpqlhJkeX44fyHdNJ7E6olqrK0g_kp8h5SS7SuCPRznxM-xr6gLRGy6DUIEPnWwKTPUwtChIyR94P4MgmY5QpazfEsxlvgSshPgNEIQ2cC0DceJm5USeAo4- -87P91kUTHhKncYMdAhdPQAbY7cwLYZBtSn6WYKtf68AXGftVniFo3ZMFMa0T4uOTiHKcD4NKn9V55hTYukJ1kuDQQ2NWep86PiLcMvq0EjAfbl9qRteTsp81xqe8udMYfWljbcvtRRnLZxhy8cTsHkGCU-wnAL7F_S3V8kbpT5RzO1hl-gSw3UT6cwkikdWRTA68DkRoYbNwNoBnAlq95mcr6Oc9NihgWkVCkIJvcV9Y2IbIfhUdlP2fP2BboCOyQJfdBMgr_KJyJDUF-q1RxPoZxosApBMlptTOnwoq-DkTquEJrkFQgdqi-Broml12-vOruEWTJEv1wjB4nCaml9JCwz6wI2umnN2j5I-xXB-BKZTHL-s0RXIAs6qyjO4Tr_7kuApat0e7Cp8C0_uEWuYMc0f7P-8TS9NkOJ7X-km7zpp-rLYohr91ID-Stc-E3Vx7m00]--></g></svg>